<svg id="Capa_1" enable-background="new 0 0 512 512" height="512" viewBox="0 0 512 512" width="512" xmlns="http://www.w3.org/2000/svg"><g><path d="m451.569 109.109h-23.784c-4.143 0-7.5 3.357-7.5 7.5s3.357 7.5 7.5 7.5h23.784c4.143 0 7.5-3.357 7.5-7.5s-3.358-7.5-7.5-7.5z"/><path d="m318.116 145.29c-41.938 0-76.057 34.133-76.057 76.087 0 41.939 34.118 76.059 76.057 76.059 41.954 0 76.086-34.12 76.086-76.059 0-41.954-34.132-76.087-76.086-76.087zm0 137.147c-33.667 0-61.057-27.391-61.057-61.059 0-33.683 27.39-61.088 61.057-61.088 33.682 0 61.086 27.404 61.086 61.088 0 33.667-27.403 61.059-61.086 61.059z"/><path d="m483.916 69.063h-91.116l-8.82-24.376c-1.422-3.926-5.75-15.872-17.977-15.872h-116.674c-12.228 0-16.556 11.946-17.979 15.875l-8.819 24.373h-74.188v-18.131c0-9.874-8.033-17.907-17.907-17.907h-33.414c-9.858 0-17.878 8.033-17.878 17.907v18.455c-13.467 2.066-23.814 13.74-23.814 27.789v153.409l-33.98 6.591c-14.285 2.784-23.642 16.663-20.861 30.93l33.675 173.744c2.458 12.57 13.548 21.335 25.933 21.335 1.648 0 3.32-.155 4.997-.478l73.256-14.213c4.066-.788 6.723-4.725 5.934-8.791s-4.727-6.726-8.791-5.934l-73.243 14.21c-6.172 1.191-12.163-2.855-13.363-8.995l-33.675-173.74c-1.2-6.157 2.841-12.143 9-13.345l182.655-35.431c2.962-.567 5.987.059 8.52 1.77 2.532 1.711 4.24 4.284 4.811 7.259l33.703 173.709c1.2 6.157-2.841 12.143-9 13.345l-73.285 14.213c-4.066.789-6.723 4.725-5.935 8.791.789 4.066 4.725 6.72 8.791 5.936l73.291-14.216c14.285-2.784 23.642-16.663 20.861-30.931l-9.114-46.973h83.715c4.143 0 7.5-3.357 7.5-7.5s-3.357-7.5-7.5-7.5h-86.625l-7.903-40.734c19.848 14.933 44.171 23.213 69.417 23.213 50.05 0 92.759-31.997 108.756-76.602h70.13v81.009c0 7.231-5.869 13.114-13.084 13.114h-103.96c-4.143 0-7.5 3.357-7.5 7.5s3.357 7.5 7.5 7.5h103.96c15.485 0 28.084-12.612 28.084-28.114v-244.081c0-15.502-12.599-28.113-28.084-28.113zm-238.462-19.266c1.437-3.969 2.741-5.981 3.875-5.981h116.674c1.411 0 2.886 3.253 3.873 5.978l6.973 19.269h-138.367zm-42.804 171.581c0 .21.01.419.011.628l-54.318 10.537v-35.032h56.792c-1.625 7.704-2.485 15.686-2.485 23.867zm-108.507-170.446c0-1.576 1.318-2.907 2.878-2.907h33.414c1.603 0 2.907 1.304 2.907 2.907v18.131h-39.199zm-23.813 46.244c0-7.23 5.87-13.113 13.084-13.113h3.229 46.699v151.389l-25.39 4.925v-84.588c0-7.204-5.86-13.064-13.064-13.064h-24.558zm0 60.549h22.622v85.562l-22.622 4.388zm247.786 164.123c-28.239 0-55.154-11.902-74.171-32.715l-9.018-46.48c-1.326-6.903-5.283-12.885-11.141-16.844-1.926-1.301-3.98-2.325-6.114-3.073-.006-.453-.024-.905-.024-1.358 0-55.415 45.07-100.498 100.467-100.498 55.414 0 100.496 45.084 100.496 100.498.001 55.399-45.081 100.47-100.495 100.47zm178.884-76.602h-65.876c1.626-7.704 2.487-15.687 2.487-23.868s-.861-16.163-2.486-23.867h65.875zm0-62.735h-70.124c-15.994-44.622-58.706-76.631-108.76-76.631-50.041 0-92.743 32.01-108.733 76.631h-61.041v-98.448h79.45 159.745 96.378c7.215 0 13.084 5.883 13.084 13.113v85.335z"/><path d="m227.203 408.581c1.76-2.629 2.4-5.708 1.805-8.649l-25.49-128.088c-1.355-6.699-8.347-10.792-15.929-9.336l-139.127 26.984c-7.612 1.471-12.565 7.907-11.264 14.718l25.501 127.998c.566 2.962 2.316 5.568 4.93 7.34 2.287 1.55 5.099 2.365 8.011 2.365.995 0 2.002-.095 3.004-.289l139.098-26.984c3.944-.761 7.392-2.97 9.461-6.059zm-160.458-33.218-14.292-71.366 136.887-26.55 8.305 41.734-17.551 3.409c-33.474 6.491-44.587 16.516-55.334 26.209-10.409 9.389-21.161 19.079-58.015 26.564zm10.162 51.319-3.494-18.024-3.723-18.591c40.934-8.332 53.75-19.876 65.117-30.129 10.068-9.081 18.763-16.925 48.145-22.622l17.62-3.423 13.182 66.242z"/></g></svg>